<?xml version="1.0" ?><!DOCTYPE svg  PUBLIC '-//W3C//DTD SVG 1.1//EN'  'http://www.w3.org/Graphics/SVG/1.1/DTD/svg11.dtd'><svg enable-background="new 0 0 512 512" height="512px" id="Layer_1" version="1.1" viewBox="0 0 512 512" width="512px" xml:space="preserve" xmlns="http://www.w3.org/2000/svg" xmlns:xlink="http://www.w3.org/1999/xlink"><g><polygon fill="#ECF0F1" points="352.75,468 159.25,468 202,432.127 202,393 311,393 311,432.127   "/><path d="M510.728,394.084c0,9.947-9.816,18.011-21.924,18.011H24.034c-12.108,0-21.923-8.063-21.923-18.011    V120.309c0-9.947,9.815-18.011,21.923-18.011h464.77c12.107,0,21.924,8.063,21.924,18.011V394.084z" fill="#ECF0F1"/><path d="M511,77.424V360H2V77.424C2,65.751,13.395,56,25.467,56H488.78C500.851,56,511,65.751,511,77.424z" fill="#333333"/><circle cx="255" cy="385.82" fill="#333333" r="13.658"/><rect fill="#D3D3D3" height="20" width="109" x="202" y="412"/></g></svg>